<svg xmlns="http://www.w3.org/2000/svg" viewBox="0 0 100 100">
  <defs>
    <linearGradient id="sunGradient" x1="0%" y1="0%" x2="100%" y2="100%">
      <stop offset="0%" style="stop-color:#FDD835;stop-opacity:1" />
      <stop offset="100%" style="stop-color:#FBC02D;stop-opacity:1" />
    </linearGradient>
  </defs>
  
  <!-- Sun -->
  <circle cx="50" cy="40" r="18" fill="url(#sunGradient)"/>
  
  <!-- Sun rays -->
  <line x1="50" y1="10" x2="50" y2="18" stroke="#FDD835" stroke-width="3" stroke-linecap="round"/>
  <line x1="50" y1="62" x2="50" y2="70" stroke="#FDD835" stroke-width="3" stroke-linecap="round"/>
  <line x1="20" y1="40" x2="28" y2="40" stroke="#FDD835" stroke-width="3" stroke-linecap="round"/>
  <line x1="72" y1="40" x2="80" y2="40" stroke="#FDD835" stroke-width="3" stroke-linecap="round"/>
  <line x1="30" y1="20" x2="36" y2="26" stroke="#FDD835" stroke-width="3" stroke-linecap="round"/>
  <line x1="64" y1="54" x2="70" y2="60" stroke="#FDD835" stroke-width="3" stroke-linecap="round"/>
  <line x1="70" y1="20" x2="64" y2="26" stroke="#FDD835" stroke-width="3" stroke-linecap="round"/>
  <line x1="36" y1="54" x2="30" y2="60" stroke="#FDD835" stroke-width="3" stroke-linecap="round"/>
  
  <!-- Cloud -->
  <path d="M 20 65 Q 20 55 30 55 Q 30 48 38 48 Q 42 42 50 42 Q 58 42 62 48 Q 70 48 70 55 Q 80 55 80 65 Q 80 75 70 75 L 30 75 Q 20 75 20 65 Z" fill="#ffffff" stroke="#e0e0e0" stroke-width="2"/>
</svg>
